<svg width="20" height="20" viewBox="0 0 20 20" fill="none" xmlns="http://www.w3.org/2000/svg">
<g clip-path="url(#clip0_122_1099)">
<path d="M4.9987 1.66699C4.08203 1.66699 3.34036 2.41699 3.34036 3.33366L3.33203 16.667C3.33203 17.5837 4.0737 18.3337 4.99036 18.3337H14.9987C15.9154 18.3337 16.6654 17.5837 16.6654 16.667V6.66699L11.6654 1.66699H4.9987ZM10.832 7.50033V2.91699L15.4154 7.50033H10.832Z" fill="white" fill-opacity="0.8"/>
<path d="M7.45752 14.3052V10.8564H8.47949V14.3052C8.47949 14.6379 8.40658 14.9238 8.26074 15.1631C8.11491 15.4001 7.91553 15.5824 7.6626 15.71C7.41195 15.8376 7.12939 15.9014 6.81494 15.9014C6.4891 15.9014 6.20085 15.8467 5.9502 15.7373C5.69954 15.6279 5.50244 15.4604 5.35889 15.2349C5.21533 15.007 5.14355 14.7188 5.14355 14.3701H6.17236C6.17236 14.5524 6.19743 14.6971 6.24756 14.8042C6.29997 14.9113 6.37402 14.9876 6.46973 15.0332C6.56543 15.0788 6.6805 15.1016 6.81494 15.1016C6.94482 15.1016 7.05762 15.0708 7.15332 15.0093C7.24902 14.9478 7.32308 14.8577 7.37549 14.7393C7.43018 14.6208 7.45752 14.4761 7.45752 14.3052ZM11.9453 14.5308C11.9453 14.4419 11.9316 14.3621 11.9043 14.2915C11.8792 14.2186 11.8314 14.1525 11.7607 14.0933C11.6901 14.0317 11.591 13.9714 11.4634 13.9121C11.3358 13.8529 11.1706 13.7913 10.9678 13.7275C10.7422 13.6546 10.528 13.5726 10.3252 13.4814C10.1247 13.3903 9.94694 13.2843 9.79199 13.1636C9.63932 13.0405 9.51855 12.8981 9.42969 12.7363C9.3431 12.5745 9.2998 12.3866 9.2998 12.1724C9.2998 11.965 9.34538 11.777 9.43652 11.6084C9.52767 11.4375 9.65527 11.2917 9.81934 11.1709C9.9834 11.0479 10.1771 10.9533 10.4004 10.8872C10.626 10.8211 10.8732 10.7881 11.1421 10.7881C11.509 10.7881 11.8291 10.8542 12.1025 10.9863C12.376 11.1185 12.5879 11.2996 12.7383 11.5298C12.891 11.7599 12.9673 12.0231 12.9673 12.3193H11.9487C11.9487 12.1735 11.918 12.0459 11.8564 11.9365C11.7972 11.8249 11.7061 11.7371 11.583 11.6733C11.4622 11.6095 11.3096 11.5776 11.125 11.5776C10.9473 11.5776 10.7992 11.605 10.6807 11.6597C10.5622 11.7121 10.4733 11.7839 10.4141 11.875C10.3548 11.9639 10.3252 12.0641 10.3252 12.1758C10.3252 12.2601 10.3457 12.3364 10.3867 12.4048C10.43 12.4731 10.4938 12.5369 10.5781 12.5962C10.6624 12.6554 10.7661 12.7113 10.8892 12.7637C11.0122 12.8161 11.1546 12.8674 11.3164 12.9175C11.5876 12.9995 11.8257 13.0918 12.0308 13.1943C12.2381 13.2969 12.4113 13.4119 12.5503 13.5396C12.6893 13.6672 12.7941 13.8118 12.8647 13.9736C12.9354 14.1354 12.9707 14.3188 12.9707 14.5239C12.9707 14.7404 12.9285 14.9341 12.8442 15.105C12.7599 15.2759 12.638 15.4206 12.4785 15.5391C12.319 15.6576 12.1287 15.7476 11.9077 15.8091C11.6867 15.8706 11.4395 15.9014 11.166 15.9014C10.9199 15.9014 10.6772 15.8695 10.438 15.8057C10.1987 15.7396 9.98112 15.6405 9.78516 15.5083C9.59147 15.3761 9.43652 15.2075 9.32031 15.0024C9.2041 14.7974 9.146 14.5547 9.146 14.2744H10.1748C10.1748 14.4294 10.1987 14.5604 10.2466 14.6675C10.2944 14.7746 10.3617 14.8612 10.4482 14.9272C10.5371 14.9933 10.6419 15.0412 10.7627 15.0708C10.8857 15.1004 11.0202 15.1152 11.166 15.1152C11.3438 15.1152 11.4896 15.0902 11.6035 15.04C11.7197 14.9899 11.8052 14.9204 11.8599 14.8315C11.9168 14.7427 11.9453 14.6424 11.9453 14.5308Z" fill="black" fill-opacity="0.8"/>
</g>
<defs>
<clipPath id="clip0_122_1099">
<rect width="20" height="20" fill="white"/>
</clipPath>
</defs>
</svg>
